<svg width="50" height="50" viewBox="0 0 50 50" fill="none" xmlns="http://www.w3.org/2000/svg">
<path fill-rule="evenodd" clip-rule="evenodd" d="M25.0002 0C11.1948 0 0 11.4757 0 25.6327C0 36.9581 7.16332 46.5665 17.0967 49.9559C18.3461 50.1932 18.8048 49.3999 18.8048 48.7228C18.8048 48.1116 18.7816 46.0924 18.7709 43.9505C11.8158 45.5011 10.3482 40.9261 10.3482 40.9261C9.21093 37.9633 7.57235 37.1754 7.57235 37.1754C5.30408 35.5845 7.74332 35.6172 7.74332 35.6172C10.2538 35.7976 11.5757 38.2587 11.5757 38.2587C13.8054 42.1775 17.4241 41.0445 18.8508 40.3896C19.0751 38.7333 19.723 37.6016 20.438 36.9619C14.8851 36.3138 9.04782 34.1158 9.04782 24.2939C9.04782 21.4954 10.0244 19.2087 11.6237 17.4136C11.3641 16.7676 10.5084 14.1609 11.8659 10.6301C11.8659 10.6301 13.9652 9.94119 18.7427 13.2576C20.7369 12.6897 22.8756 12.4048 25.0002 12.3951C27.1248 12.4048 29.2652 12.6897 31.2631 13.2576C36.0348 9.94119 38.1312 10.6301 38.1312 10.6301C39.492 14.1609 38.6359 16.7676 38.3763 17.4136C39.9793 19.2087 40.9493 21.4954 40.9493 24.2939C40.9493 34.1392 35.1008 36.307 29.5338 36.9416C30.4306 37.737 31.2296 39.297 31.2296 41.6885C31.2296 45.1178 31.2006 47.8781 31.2006 48.7228C31.2006 49.405 31.6506 50.2043 32.9178 49.9525C42.8458 46.5593 50 36.9543 50 25.6327C50 11.4757 38.8069 0 25.0002 0Z" fill="white"/>
<path fill-rule="evenodd" clip-rule="evenodd" d="M9.46884 36.8037C9.41378 36.9315 9.21838 36.9693 9.04037 36.8818C8.85904 36.7982 8.7572 36.6246 8.81599 36.4968C8.86981 36.3657 9.06562 36.3296 9.24653 36.4166C9.42827 36.5006 9.53177 36.676 9.46884 36.8037Z" fill="white"/>
<path fill-rule="evenodd" clip-rule="evenodd" d="M10.4815 37.9597C10.3623 38.0731 10.1292 38.0204 9.97105 37.8413C9.80753 37.6626 9.7769 37.4237 9.89778 37.3086C10.0207 37.1953 10.2468 37.2484 10.4107 37.4271C10.5742 37.6079 10.6061 37.8451 10.4815 37.9597Z" fill="white"/>
<path fill-rule="evenodd" clip-rule="evenodd" d="M11.4671 39.4368C11.314 39.5459 11.0635 39.4436 10.9087 39.2157C10.7555 38.9877 10.7555 38.7144 10.912 38.6049C11.0672 38.4954 11.314 38.5939 11.4709 38.8201C11.6236 39.0514 11.6236 39.3252 11.4671 39.4368Z" fill="white"/>
<path fill-rule="evenodd" clip-rule="evenodd" d="M12.8175 40.8631C12.6805 41.018 12.3886 40.9764 12.175 40.7651C11.9564 40.5583 11.8955 40.265 12.033 40.1101C12.1716 39.9547 12.4652 39.9985 12.6805 40.2081C12.8974 40.4144 12.9636 40.7099 12.8175 40.8631Z" fill="white"/>
<path fill-rule="evenodd" clip-rule="evenodd" d="M14.6805 41.6922C14.6201 41.893 14.339 41.9843 14.0558 41.8989C13.773 41.8111 13.588 41.5759 13.6451 41.373C13.7039 41.1709 13.9863 41.0758 14.2715 41.1671C14.5538 41.2546 14.7393 41.488 14.6805 41.6922Z" fill="white"/>
<path fill-rule="evenodd" clip-rule="evenodd" d="M16.7267 41.8443C16.7337 42.0557 16.4936 42.231 16.1963 42.2344C15.8974 42.2416 15.6557 42.0705 15.6523 41.8626C15.6523 41.6491 15.8871 41.4755 16.186 41.4704C16.4832 41.4644 16.7267 41.6342 16.7267 41.8443Z" fill="white"/>
<path fill-rule="evenodd" clip-rule="evenodd" d="M18.6306 41.5133C18.6662 41.7196 18.4596 41.9314 18.1645 41.9875C17.8742 42.0422 17.6056 41.9149 17.5687 41.7103C17.5327 41.4989 17.743 41.2871 18.0328 41.2323C18.3284 41.1797 18.593 41.3036 18.6306 41.5133Z" fill="white"/>
</svg>
