<svg width="50" height="50" viewBox="0 0 50 50" fill="none" xmlns="http://www.w3.org/2000/svg">
<path fill-rule="evenodd" clip-rule="evenodd" d="M25 0C11.1929 0 0 11.1929 0 25C0 38.8071 11.1929 50 25 50C38.8071 50 50 38.8071 50 25C50 11.1929 38.8071 0 25 0ZM19.5033 11.7474C20.9255 11.6827 21.3799 11.6669 25.0011 11.6669H24.9969C28.6192 11.6669 29.072 11.6827 30.4942 11.7474C31.9137 11.8124 32.8831 12.0372 33.7331 12.3669C34.6109 12.7072 35.3526 13.1627 36.0943 13.9044C36.836 14.6455 37.2915 15.3894 37.6332 16.2664C37.961 17.1141 38.186 18.083 38.2526 19.5025C38.3165 20.9247 38.3332 21.3792 38.3332 25.0003C38.3332 28.6215 38.3165 29.0748 38.2526 30.4971C38.186 31.916 37.961 32.8851 37.6332 33.7332C37.2915 34.6099 36.836 35.3538 36.0943 36.0949C35.3534 36.8366 34.6106 37.2933 33.734 37.6338C32.8856 37.9635 31.9156 38.1883 30.4962 38.2533C29.0739 38.318 28.6209 38.3338 24.9994 38.3338C21.3786 38.3338 20.9244 38.318 19.5021 38.2533C18.083 38.1883 17.1138 37.9635 16.2654 37.6338C15.389 37.2933 14.6451 36.8366 13.9043 36.0949C13.1629 35.3538 12.7073 34.6099 12.3665 33.7329C12.0371 32.8852 11.8123 31.9163 11.7471 30.4968C11.6826 29.0746 11.6665 28.6215 11.6665 25.0003C11.6665 21.3792 11.6832 20.9245 11.7468 19.5022C11.8107 18.0833 12.0357 17.1141 12.3662 16.2661C12.7079 15.3894 13.1635 14.6455 13.9051 13.9044C14.6463 13.163 15.3902 12.7074 16.2671 12.3669C17.1149 12.0372 18.0838 11.8124 19.5033 11.7474Z" fill="white"/>
<path fill-rule="evenodd" clip-rule="evenodd" d="M23.8054 14.0688C24.0376 14.0684 24.2875 14.0685 24.5571 14.0686L25.0015 14.0688C28.5615 14.0688 28.9835 14.0815 30.3893 14.1454C31.6893 14.2049 32.3949 14.4221 32.8649 14.6046C33.4871 14.8463 33.9308 15.1352 34.3971 15.6018C34.8638 16.0685 35.1527 16.513 35.3949 17.1352C35.5774 17.6046 35.7949 18.3102 35.8541 19.6102C35.918 21.0158 35.9319 21.438 35.9319 24.9964C35.9319 28.5548 35.918 28.977 35.8541 30.3825C35.7947 31.6826 35.5774 32.3881 35.3949 32.8576C35.1533 33.4798 34.8638 33.9229 34.3971 34.3893C33.9305 34.8559 33.4874 35.1448 32.8649 35.3865C32.3955 35.5698 31.6893 35.7865 30.3893 35.8459C28.9838 35.9098 28.5615 35.9237 25.0015 35.9237C21.4412 35.9237 21.0192 35.9098 19.6136 35.8459C18.3136 35.7859 17.6081 35.5687 17.1378 35.3862C16.5156 35.1445 16.0711 34.8557 15.6044 34.389C15.1378 33.9223 14.8489 33.479 14.6066 32.8565C14.4241 32.387 14.2066 31.6815 14.1475 30.3814C14.0836 28.9759 14.0708 28.5536 14.0708 24.993C14.0708 21.4325 14.0836 21.0124 14.1475 19.6069C14.2069 18.3069 14.4241 17.6013 14.6066 17.1313C14.8483 16.5091 15.1378 16.0646 15.6044 15.5979C16.0711 15.1313 16.5156 14.8424 17.1378 14.6002C17.6078 14.4168 18.3136 14.2002 19.6136 14.1404C20.8437 14.0849 21.3203 14.0682 23.8054 14.0654V14.0688ZM32.1186 16.2829C31.2352 16.2829 30.5186 16.9988 30.5186 17.8824C30.5186 18.7657 31.2352 19.4824 32.1186 19.4824C33.0019 19.4824 33.7186 18.7657 33.7186 17.8824C33.7186 16.999 33.0019 16.2823 32.1186 16.2823V16.2829ZM18.1541 24.9998C18.1541 21.2184 21.2198 18.1526 25.0011 18.1525C28.7825 18.1525 31.8475 21.2183 31.8475 24.9998C31.8475 28.7812 28.7828 31.8457 25.0013 31.8457C21.2199 31.8457 18.1541 28.7812 18.1541 24.9998Z" fill="white"/>
<path fill-rule="evenodd" clip-rule="evenodd" d="M25.0011 20.5562C27.4556 20.5562 29.4456 22.5459 29.4456 25.0007C29.4456 27.4551 27.4556 29.4452 25.0011 29.4452C22.5464 29.4452 20.5566 27.4551 20.5566 25.0007C20.5566 22.5459 22.5464 20.5562 25.0011 20.5562V20.5562Z" fill="white"/>
</svg>
