<svg width="52" height="52" viewBox="0 0 52 52" fill="none" xmlns="http://www.w3.org/2000/svg">
<circle cx="26" cy="26" r="25.5" fill="white" stroke="white"/>
<path d="M44.5487 25.2725H38.0144L38.0084 25.313C37.7143 27.292 37.6318 27.8477 35.5013 29.3061C33.8466 30.1492 31.8237 30.0432 29.2686 30.1927L32.1838 36.221C36.7435 35.1316 38.9006 34.2732 41.2816 31.8327C43.4984 29.1911 44.1048 27.7639 44.5487 25.2725Z" fill="black" stroke="white"/>
<path d="M34.3957 11.3575C28.9921 10.7951 26.2828 11.9533 21.3271 15.0838L24.8456 19.7164C26.6559 17.6421 28.353 16.5607 31.983 16.1631C34.8983 16.6063 35.4764 16.1895 38.2157 19.7164L44.549 19.6051C42.1012 15.4158 39.9867 13.0128 34.3957 11.3575Z" fill="black" stroke="white"/>
<path d="M25.0715 36.2212L23.3625 31.9659H19.4922H15.2198L21.3404 21.0838L29.746 36.2212H35.1493L21.3404 11.2212L7.35352 36.2212H25.0715Z" fill="black" stroke="white"/>
<path d="M23.3122 30.5029H18.6628L19.9194 36.221H25.4987L23.3122 30.5029Z" fill="black" stroke="white"/>
</svg>
