<svg width="30" height="30" viewBox="0 0 30 30" fill="none" xmlns="http://www.w3.org/2000/svg">
<g id="WhatsApp">
<path id="Combined Shape" fill-rule="evenodd" clip-rule="evenodd" d="M30 15C30 23.2843 23.2843 30 15 30C6.71573 30 0 23.2843 0 15C0 6.71573 6.71573 0 15 0C23.2843 0 30 6.71573 30 15ZM15.4907 23.3454H15.4944C20.4122 23.3433 24.4119 19.3427 24.4138 14.426C24.4148 12.0427 23.4879 9.80179 21.8039 8.11591C20.1199 6.42995 17.8804 5.50106 15.4943 5.50003C10.578 5.50003 6.57674 9.50109 6.57478 14.4189C6.57411 15.991 6.98483 17.5254 7.76538 18.8781L6.5 23.5L11.2283 22.2597C12.5311 22.9703 13.9979 23.3448 15.4907 23.3454Z" fill="#53BCB7"/>
<path id="Combined Shape_2" fill-rule="evenodd" clip-rule="evenodd" d="M11.7182 20.8056L11.4475 20.6449L8.64163 21.381L9.39055 18.6453L9.21429 18.3648C8.47218 17.1845 8.08024 15.8202 8.08081 14.4194C8.08243 10.3319 11.4082 7.00653 15.4974 7.00653C17.4776 7.00722 19.3389 7.77932 20.7386 9.18063C22.1383 10.5819 22.9087 12.4445 22.9079 14.4254C22.9063 18.5132 19.5806 21.839 15.4945 21.839H15.4915C14.1612 21.8385 12.8564 21.4811 11.7182 20.8056ZM19.6827 16.3463C19.8382 16.4214 19.9431 16.4721 19.9879 16.5469C20.0436 16.6399 20.0436 17.0861 19.858 17.6068C19.6722 18.1273 18.7819 18.6025 18.3536 18.6664C17.9697 18.7239 17.4838 18.7478 16.9499 18.5781C16.6262 18.4754 16.2111 18.3383 15.6794 18.1087C13.5901 17.2065 12.1781 15.1815 11.9112 14.7988C11.8926 14.7719 11.8795 14.7532 11.8722 14.7435L11.8704 14.7411C11.7524 14.5837 10.9622 13.5293 10.9622 12.438C10.9622 11.4114 11.4664 10.8733 11.6986 10.6256C11.7145 10.6087 11.7291 10.593 11.7422 10.5787C11.9465 10.3556 12.1879 10.2998 12.3365 10.2998C12.485 10.2998 12.6338 10.3012 12.7636 10.3077C12.7797 10.3085 12.7963 10.3084 12.8136 10.3083C12.9434 10.3076 13.1053 10.3066 13.2651 10.6903C13.3265 10.838 13.4164 11.0569 13.5113 11.2878C13.7031 11.7546 13.9149 12.2705 13.9522 12.3451C14.0079 12.4567 14.0451 12.5868 13.9708 12.7356C13.9596 12.7579 13.9493 12.779 13.9395 12.7991C13.8837 12.913 13.8426 12.9968 13.7479 13.1073C13.7107 13.1508 13.6722 13.1977 13.6337 13.2446C13.557 13.3379 13.4804 13.4313 13.4136 13.4978C13.3021 13.6089 13.1859 13.7295 13.3159 13.9526C13.4459 14.1758 13.8932 14.9056 14.5557 15.4965C15.2679 16.1318 15.8869 16.4003 16.2007 16.5364C16.262 16.563 16.3116 16.5845 16.348 16.6027C16.5708 16.7143 16.7008 16.6956 16.8308 16.5469C16.9608 16.3982 17.3879 15.8962 17.5365 15.6731C17.685 15.45 17.8337 15.4872 18.0379 15.5615C18.2423 15.636 19.338 16.1751 19.5608 16.2866C19.6043 16.3084 19.645 16.3281 19.6827 16.3463Z" fill="#53BCB7"/>
</g>
</svg>
