<svg width="50" height="50" viewBox="0 0 50 50" fill="none" xmlns="http://www.w3.org/2000/svg">
<path d="M25 50C38.8071 50 50 38.8071 50 25C50 11.1929 38.8071 0 25 0C11.1929 0 0 11.1929 0 25C0 38.8071 11.1929 50 25 50Z" fill="#53BCB7"/>
<path d="M43.5485 24.2723H37.0143L37.0085 24.3129C36.7143 26.2919 36.6317 26.8476 34.5013 28.306C32.8466 29.1491 30.8237 29.0431 28.2684 29.1925L31.1839 35.2209C35.7436 34.1314 37.9005 33.2732 40.2814 30.8326C42.4983 28.1908 43.1049 26.7638 43.5485 24.2723Z" fill="#252525"/>
<path d="M33.3956 10.3578C27.992 9.79528 25.2826 10.9536 20.327 14.0841L23.8455 18.7166C25.6558 16.6424 27.3529 15.5609 30.9829 15.1633C33.8983 15.6066 34.4762 15.1898 37.2157 18.7166L43.5489 18.6054C41.1011 14.4161 38.9864 12.013 33.3956 10.3578Z" fill="#252525"/>
<path d="M24.0716 35.2209L22.3626 30.9657H18.4923H14.2199L20.3406 20.0835L28.7462 35.2209H34.1495L20.3406 10.2209L6.35364 35.2209H24.0716Z" fill="#252525" stroke="#53BCB7" stroke-width="0.5"/>
<path d="M22.3124 29.5031H17.663L18.9196 35.221H24.4988L22.3124 29.5031Z" fill="#252525"/>
</svg>
